<svg width="30" height="31" viewBox="0 0 30 31" fill="none" xmlns="http://www.w3.org/2000/svg">
<path d="M27.625 0.84668C28.2005 0.84668 28.6875 1.06803 29.0859 1.51074C29.5286 1.90918 29.75 2.39616 29.75 2.97168V28.4717C29.75 29.0472 29.5286 29.5342 29.0859 29.9326C28.6875 30.3753 28.2005 30.5967 27.625 30.5967H2.125C1.54948 30.5967 1.04036 30.3753 0.597656 29.9326C0.199219 29.5342 0 29.0472 0 28.4717V2.97168C0 2.39616 0.199219 1.90918 0.597656 1.51074C1.04036 1.06803 1.54948 0.84668 2.125 0.84668H27.625ZM8.96484 26.3467H9.03125V12.1357H4.58203V26.3467H8.96484ZM4.98047 9.47949C5.46745 9.96647 6.0651 10.21 6.77344 10.21C7.48177 10.21 8.07943 9.96647 8.56641 9.47949C9.09766 8.94824 9.36328 8.35059 9.36328 7.68652C9.36328 6.97819 9.09766 6.38053 8.56641 5.89355C8.07943 5.3623 7.48177 5.09668 6.77344 5.09668C6.0651 5.09668 5.46745 5.3623 4.98047 5.89355C4.49349 6.38053 4.25 6.97819 4.25 7.68652C4.25 8.35059 4.49349 8.94824 4.98047 9.47949ZM25.5 26.3467V18.5771C25.5 17.5146 25.4336 16.6071 25.3008 15.8545C25.168 15.1019 24.9245 14.4157 24.5703 13.7959C24.2161 13.1318 23.6628 12.6449 22.9102 12.335C22.2018 11.9808 21.3164 11.8037 20.2539 11.8037C19.2357 11.8037 18.3503 12.0251 17.5977 12.4678C16.8893 12.9105 16.3802 13.4417 16.0703 14.0615H16.0039V12.1357H11.7539V26.3467H16.2031V19.3076C16.2031 18.2008 16.3802 17.3154 16.7344 16.6514C17.0885 15.9873 17.7747 15.6553 18.793 15.6553C19.3242 15.6553 19.7669 15.766 20.1211 15.9873C20.4753 16.2087 20.6966 16.5407 20.7852 16.9834C20.918 17.4261 21.0065 17.8245 21.0508 18.1787C21.0951 18.4886 21.1172 18.9092 21.1172 19.4404V26.3467H25.5Z" fill="#3D3A3A"/>
</svg>
