<svg width="32" height="33" viewBox="0 0 32 33" fill="none" xmlns="http://www.w3.org/2000/svg">
<path d="M27.2637 4.81738C30.4004 7.91113 31.9688 11.6709 31.9688 16.0967C31.9688 20.5225 30.4004 24.3037 27.2637 27.4404C24.1699 30.5342 20.4102 32.0811 15.9844 32.0811C14.3516 32.0811 12.7832 31.8447 11.2793 31.3721C12.3105 29.6533 12.9551 28.2568 13.2129 27.1826L14.2441 23.3799C14.502 23.8955 14.9746 24.3252 15.6621 24.6689C16.3496 25.0127 17.1016 25.1846 17.918 25.1846C20.2812 25.1846 22.2363 24.2393 23.7832 22.3486C25.373 20.415 26.168 18.0518 26.168 15.2588C26.168 12.6377 25.2227 10.4463 23.332 8.68457C21.4414 6.92285 19.0996 6.04199 16.3066 6.04199C13.041 6.04199 10.4629 6.9873 8.57227 8.87793C6.72461 10.7686 5.80078 13.0459 5.80078 15.71C5.80078 16.9561 6.10156 18.2021 6.70312 19.4482C7.30469 20.6514 8.07812 21.4678 9.02344 21.8975C9.32422 22.0264 9.49609 21.9619 9.53906 21.7041C9.58203 21.6182 9.64648 21.3389 9.73242 20.8662C9.86133 20.3506 9.94727 20.0283 9.99023 19.8994C10.0332 19.7275 9.99023 19.5771 9.86133 19.4482C9.08789 18.46 8.70117 17.2354 8.70117 15.7744C8.70117 13.9268 9.3457 12.3154 10.6348 10.9404C11.9668 9.52246 13.7285 8.81348 15.9199 8.81348C17.8965 8.81348 19.5078 9.43652 20.7539 10.6826C22 11.8857 22.623 13.4326 22.623 15.3232C22.623 16.7412 22.3867 18.0088 21.9141 19.126C21.4844 20.2432 20.8828 21.124 20.1094 21.7686C19.3359 22.3701 18.498 22.6709 17.5957 22.6709C16.7793 22.6709 16.1348 22.3916 15.6621 21.833C15.1895 21.2314 15.0391 20.5439 15.2109 19.7705C15.2969 19.3408 15.4688 18.7393 15.7266 17.9658C15.9844 17.1924 16.1777 16.5264 16.3066 15.9678C16.4355 15.3662 16.5 14.8506 16.5 14.4209C16.5 14.0342 16.4355 13.6689 16.3066 13.3252C16.1777 12.9814 15.9414 12.7236 15.5977 12.5518C15.2969 12.3369 14.9316 12.2295 14.502 12.2295C13.6855 12.2295 12.998 12.5947 12.4395 13.3252C11.8809 14.0557 11.6016 14.9795 11.6016 16.0967C11.6016 16.2686 11.6016 16.4619 11.6016 16.6768C11.6445 16.8486 11.666 17.0205 11.666 17.1924C11.709 17.3213 11.752 17.4717 11.7949 17.6436C11.8379 17.7725 11.8594 17.8799 11.8594 17.9658C11.9023 18.0518 11.9453 18.1377 11.9883 18.2236C12.0312 18.3096 12.0527 18.374 12.0527 18.417L12.1172 18.4814C11.043 22.9072 10.3984 25.5498 10.1836 26.4092C9.96875 27.4834 9.96875 29.0088 10.1836 30.9854C7.13281 29.8252 4.66211 27.8916 2.77148 25.1846C0.923828 22.4775 0 19.4482 0 16.0967C0 11.6709 1.54688 7.91113 4.64062 4.81738C7.77734 1.68066 11.5586 0.112305 15.9844 0.112305C20.4102 0.112305 24.1699 1.68066 27.2637 4.81738Z" fill="#3D3A3A"/>
</svg>
