<svg width="25" height="29" viewBox="0 0 25 29" fill="none" xmlns="http://www.w3.org/2000/svg">
<path d="M24.1624 6.6221C21.1617 6.6221 18.7203 4.23102 18.7203 1.29199C18.7203 0.838898 18.3452 0.47168 17.8828 0.47168H13.3971C12.9345 0.47168 12.5595 0.838898 12.5595 1.29199V19.3043C12.5595 21.032 11.1244 22.4377 9.36006 22.4377C7.59597 22.4377 6.16079 21.032 6.16079 19.3043C6.16079 17.5763 7.59597 16.1706 9.36006 16.1706C9.82267 16.1706 10.1976 15.8034 10.1976 15.3503V10.9569C10.1976 10.5041 9.82267 10.1366 9.36006 10.1366C4.19887 10.1366 0 14.2493 0 19.3043C0 24.3592 4.19887 28.4717 9.36006 28.4717C14.5212 28.4717 18.7203 24.3592 18.7203 19.3043V11.3312C20.3874 12.2017 22.2422 12.6561 24.1624 12.6561C24.6251 12.6561 25 12.2889 25 11.8358V7.44241C25 6.98953 24.6251 6.6221 24.1624 6.6221ZM23.3249 10.9815C21.5368 10.8358 19.8388 10.224 18.3718 9.19049C18.1168 9.01062 17.7805 8.98584 17.5007 9.1264C17.221 9.26654 17.0452 9.54852 17.0452 9.85635V19.3043C17.0452 23.4545 13.5975 26.8311 9.36006 26.8311C5.12258 26.8311 1.6751 23.4545 1.6751 19.3043C1.6751 15.4311 4.67763 12.2316 8.52251 11.8217V14.6005C6.23233 14.9906 4.48569 16.9512 4.48569 19.3043C4.48569 21.9367 6.67226 24.0785 9.36006 24.0785C12.0481 24.0785 14.2346 21.9367 14.2346 19.3043V2.1123H17.0941C17.4778 5.3017 20.0685 7.83911 23.3249 8.21488V10.9815Z" fill="#3D3A3A"/>
</svg>
