<svg width="42" height="29" viewBox="0 0 42 29" fill="none" xmlns="http://www.w3.org/2000/svg">
<path d="M16.7446 20.7143L27.4063 14.5L16.7446 8.28571V20.7143ZM40.492 4.495C40.759 5.46857 40.9439 6.77357 41.0672 8.43071C41.211 10.0879 41.2726 11.5171 41.2726 12.76L41.3959 14.5C41.3959 19.0364 41.0672 22.3714 40.492 24.505C39.9784 26.3693 38.7869 27.5707 36.9381 28.0886C35.9726 28.3579 34.2059 28.5443 31.4943 28.6686C28.8237 28.8136 26.3791 28.8757 24.1194 28.8757L20.8531 29C12.2457 29 6.8841 28.6686 4.7682 28.0886C2.91935 27.5707 1.72787 26.3693 1.2143 24.505C0.947249 23.5314 0.762365 22.2264 0.639108 20.5693C0.495309 18.9121 0.433681 17.4829 0.433681 16.24L0.310425 14.5C0.310425 9.96357 0.639108 6.62857 1.2143 4.495C1.72787 2.63071 2.91935 1.42929 4.7682 0.911429C5.7337 0.642143 7.50038 0.455714 10.212 0.331428C12.8826 0.186428 15.3272 0.124286 17.5869 0.124286L20.8531 0C29.4605 0 34.8222 0.331429 36.9381 0.911429C38.7869 1.42929 39.9784 2.63071 40.492 4.495Z" fill="#333333"/>
</svg>
